<mxfile host="65bd71144e" modified="2023-10-18T18:26:35.977Z" agent="Mozilla/5.0 (Windows NT 10.0; Win64; x64) AppleWebKit/537.36 (KHTML, like Gecko) Code/1.83.1 Chrome/114.0.5735.289 Electron/25.8.4 Safari/537.36" etag="Dt7ojzgSI4RvnLELTupo" version="22.0.4" type="embed">
    <diagram id="kTd3nSX1Rw-61itPituV" name="Seite-1">
        <mxGraphModel dx="2157" dy="797" grid="1" gridSize="10" guides="1" tooltips="1" connect="1" arrows="1" fold="1" page="1" pageScale="1" pageWidth="827" pageHeight="1169" math="0" shadow="0">
            <root>
                <mxCell id="0"/>
                <mxCell id="1" parent="0"/>
                <mxCell id="2" value="#Foo" style="whiteSpace=wrap;html=1;" parent="1" vertex="1">
                    <mxGeometry x="-300" y="310" width="120" height="60" as="geometry"/>
                </mxCell>
                <mxCell id="3" value="Text" style="text;html=1;align=center;verticalAlign=middle;resizable=0;points=[];autosize=1;strokeColor=none;fillColor=none;" vertex="1" parent="1">
                    <mxGeometry x="15" y="368" width="50" height="30" as="geometry"/>
                </mxCell>
            </root>
        </mxGraphModel>
    </diagram>
</mxfile>